# xmcd
#
# Track frame offsets:
#	150
#	13300
#	30525
#	47221
#	60195
#	72538
#	83306
#	105692
#	124743
#	140562
#	158546
#	178404
#	193402
#	205359
#	217111
#	232352
#	241415
#	258284
#	276694
#	288990
#	306791
#
# Disc length: 4342 seconds
#
# Revision: 1
# Processed by: cddbd v1.4PL0 Copyright (c) Steve Scherf et al.
# Submitted via: audiograbber 1.80
#
DISCID=4910f415
DTITLE=Baião Tropical - 2002
DYEAR=1900
DGENRE=
TTITLE0=Tanta Saudade
TTITLE1=Te Amo e Não me Engano
TTITLE2=Coisas do Coração
TTITLE3=Beijo na Boca
TTITLE4=Vem Cá
TTITLE5=A Sua
TTITLE6=Poutti-Pourri (Sertanejo)
TTITLE7=Poutti-Pourri (Sertanejo II)
TTITLE8=Xote Universitário
TTITLE9=Sapatilha 37
TTITLE10=Jura que Me Ama
TTITLE11=Esse Nosso Amor
TTITLE12=Importância do Amor
TTITLE13=Só Depois da 1:00h
TTITLE14=Atitude Pacífica
TTITLE15=Olha pro Céu
TTITLE16=Frevo Mulher
TTITLE17=Jiripoca-Coração Cigano
TTITLE18=Leão Domado
TTITLE19=Lariva-Volare
TTITLE20=Moreninha LInda
EXTD=
EXTT0=
EXTT1=
EXTT2=
EXTT3=
EXTT4=
EXTT5=
EXTT6=
EXTT7=
EXTT8=
EXTT9=
EXTT10=
EXTT11=
EXTT12=
EXTT13=
EXTT14=
EXTT15=
EXTT16=
EXTT17=
EXTT18=
EXTT19=
EXTT20=
PLAYORDER=
